<?xml version="1.0" encoding="UTF-8"?><svg id="uuid-e409fcd2-fcee-4a41-b167-b1fd679f7447" xmlns="http://www.w3.org/2000/svg" viewBox="0 0 333.25 333.25"><rect x="40.84" y="46.89" width="248.56" height="248.56" transform="translate(-27.22 31.27) rotate(-10)" style="fill:#191919;"/><path d="M227.25,120.47c-.37.17-.74.18-1.06.02-.33-.17-.56-.51-.63-.95l-1.9-10.77c-.16-.93.37-1.99,1.19-2.38l7.72-3.61c.12-.05.24-.09.36-.11.25-.04.49-.01.7.1.33.17.56.51.63.95l1.9,10.77c.16.93-.37,1.99-1.19,2.38l-7.72,3.61Z" style="fill:#fdc831;"/><path d="M27.6,40.45C9.44,43.66-2.69,60.97.51,79.13l39.94,226.52c3.2,18.16,20.52,30.29,38.68,27.08l226.52-39.94c18.16-3.2,30.29-20.52,27.08-38.68l-39.94-226.52c-3.2-18.16-20.52-30.29-38.68-27.08L27.6,40.45ZM147.81,132.38l1.28,7.29c.09.53.37.95.79,1.16.27.14.57.19.89.13.14-.03.29-.07.43-.14l7.35-3.44c.94-.43,1.54-1.64,1.35-2.69l-1.28-7.29c-.09-.53-.37-.95-.79-1.17-.4-.2-.86-.2-1.32,0l-7.36,3.44c-.93.44-1.54,1.65-1.35,2.7ZM252.26,139.52l-1.29-7.34c-.09-.53-.37-.95-.79-1.17-.4-.21-.87-.2-1.33,0l-7.35,3.44c-.93.43-1.54,1.64-1.35,2.69l.64,3.58c.16.93-.37,1.99-1.19,2.38l-7.72,3.61c-.37.17-.74.18-1.06.02-.33-.17-.56-.51-.63-.95l-2.08-11.79c-.16-.93.37-1.99,1.19-2.37l12.18-5.7c4.27-2,7.06-7.55,6.2-12.37l-3.32-18.81c-.42-2.41-1.67-4.27-3.51-5.23-1.75-.92-3.83-.9-5.87.06l-16.65,7.79c-4.27,2-7.06,7.55-6.2,12.37l8.39,47.61-9.71,4.54-1.79-10.08c-.09-.54-.37-.95-.79-1.17-.4-.2-.86-.2-1.32,0l-7.35,3.44c-.93.44-1.54,1.64-1.35,2.7l.65,3.57c.16.93-.37,1.99-1.19,2.37l-7.72,3.61c-.38.17-.74.18-1.06.02-.33-.17-.56-.51-.64-.96l-6.53-37.01c-.16-.93.37-1.99,1.18-2.37l7.72-3.61c.37-.18.75-.18,1.06-.01.33.17.56.51.63.95l1.6,9.16c.1.54.38.95.79,1.17.4.21.87.2,1.32,0l7.35-3.44c.93-.43,1.54-1.64,1.35-2.69l-2.32-13.18c-.42-2.41-1.67-4.27-3.51-5.23-1.75-.92-3.84-.89-5.87.06l-16.63,7.77c-4.27,2-7.06,7.55-6.2,12.37l8.4,47.61-10.4,4.86-6.06-34.35c-.1-.54-.38-.95-.79-1.17-.4-.21-.87-.2-1.32,0l-7.35,3.44c-.93.44-1.54,1.65-1.35,2.7l6.07,34.43-6.41,2.99-.53-2.94c-.09-.53-.37-.95-.79-1.17-.4-.2-.87-.2-1.32.01l-11.05,5.2-8.72-49.48c-.09-.54-.38-.95-.79-1.17-.4-.2-.87-.2-1.32.01l-7.35,3.44c-.93.43-1.54,1.64-1.35,2.69l9.6,54.46-10.04,4.7c.21-1.27.21-2.5,0-3.67l-1.96-11.01c-.93-5.26-4.54-8.67-9.2-8.69l-14.71-.48c-.55-.03-.95-.44-1.06-1.07l-1.56-8.85c-.16-.93.37-1.99,1.19-2.37l7.72-3.61c.38-.17.74-.18,1.06-.02.33.17.56.51.64.96l.99,5.64c.09.53.37.95.79,1.17.4.2.86.2,1.32,0l7.35-3.44c.93-.44,1.54-1.65,1.35-2.7l-1.71-9.66c-.43-2.41-1.67-4.27-3.51-5.23-1.75-.92-3.83-.9-5.87.06l-16.65,7.79c-4.27,2-7.06,7.54-6.2,12.37l2.2,12.52c.95,5.39,4.62,9.02,9.36,9.25l14.66.46c.55.03.95.44,1.06,1.07l1.37,7.7c.16.92-.37,1.98-1.18,2.36l-18.25,8.53c-.93.43-1.54,1.64-1.35,2.69l4.97,28.19c.09.53.37.95.79,1.17.27.14.57.19.89.13.14-.03.29-.07.43-.14.07-.04.13-.07.2-.11l154.3-95.05c3.95-2.28,6.32-7.44,5.51-12.01Z" style="fill:#fdc831; fill-rule:evenodd;"/></svg>